<svg width="113" height="91" viewBox="0 0 113 91" fill="none" xmlns="http://www.w3.org/2000/svg">
<path d="M22.3985 53.6379C17.3535 49.3725 12.4265 45.4755 7.81193 41.2384C1.74708 35.6696 -1.2408 28.9832 0.48396 20.4369C1.79539 13.939 4.22185 8.28348 10.3717 5.30601C14.2774 3.41494 18.542 1.85158 22.8069 1.20397C30.9687 -0.0351506 39.2712 -0.349268 47.5192 0.408548C58.0277 1.37375 67.245 5.65976 75.4364 12.1992C76.4484 13.0071 77.1253 14.2349 77.8544 15.1406C81.4081 15.0359 84.9389 14.7836 88.4627 14.8568C98.161 15.0581 105.092 19.7734 109.55 28.2517C111.569 32.0914 112.648 36.2582 112.962 40.5552C113.252 44.5305 111.863 48.16 109.942 51.5967C106.22 58.26 101.438 64.0316 95.358 68.658C90.5467 72.319 85.9116 76.1679 80.639 79.2698C70.7882 85.0651 60.193 88.2488 48.9657 89.5298C44.6143 90.0264 40.2057 90.1141 35.8196 90.1933C29.6538 90.305 24.7966 87.8982 22.0372 82.168C20.4108 78.7905 18.7063 75.3902 17.6309 71.8212C15.9018 66.0823 16.9332 60.6388 20.6847 55.8301C21.2617 55.0905 21.8396 54.3526 22.3985 53.6379ZM98.0806 28.0229C98.0656 29.0581 97.5574 30.2717 99.4256 30.9572C99.344 29.7262 99.2778 28.7234 99.2 27.5485C98.5457 27.8548 98.2759 27.9812 98.006 28.1076C98.1474 26.9712 98.7291 25.7 97.1174 25.0171C96.0895 28.2459 96.0895 28.2459 96.989 29.8159C97.3766 29.1798 97.728 28.6025 98.0806 28.0229ZM83.5884 25.4356C83.558 24.8585 83.5274 24.2818 83.4649 23.0999C82.3938 23.9197 81.7213 24.4342 81.0488 24.9488C80.5007 23.6946 81.0115 22.979 82.229 22.6134C86.8265 21.2323 91.5108 20.9662 96.1253 22.2201C100.913 23.5211 102.531 26.0355 102.337 31.0133C102.305 31.8389 102.187 32.6782 101.976 33.4765C101.179 36.5035 100.287 39.5058 99.5063 42.5368C98.6921 45.6997 96.9425 48.271 94.4923 50.3212C91.9325 52.463 89.2795 54.5065 86.5612 56.4439C78.6105 62.1093 69.7357 66.1491 61.0789 70.5338C53.9433 74.1479 46.2679 76.2836 38.2186 76.627C34.4573 76.7875 30.7029 76.4664 27.2118 74.7683C22.9466 72.6938 21.4856 69.2151 23.101 64.5467C23.9288 66.7759 24.7029 68.8611 25.4769 70.9459C25.6348 70.9049 25.7927 70.8641 25.9504 70.823C25.5087 67.9474 25.0673 65.0717 24.6256 62.1958C26.5453 65.4535 26.3301 69.356 28.3817 72.5952C28.7225 71.8195 28.8966 71.0423 28.776 70.3134C28.5547 68.9779 28.0873 67.6842 27.853 66.3502C27.4917 64.2936 27.2407 62.2178 26.943 60.1502C27.1643 60.1109 27.3856 60.0716 27.6069 60.0322C28.2614 62.6756 28.916 65.3193 29.6963 68.4712C31.903 64.7721 30.0119 61.586 30.3471 58.4721C28.3797 57.252 26.5387 56.1104 24.5782 54.8947C21.5562 58.1041 19.5633 61.5123 19.3495 65.9982C19.0872 71.5051 21.7815 75.8226 24.3439 80.2486C24.8209 81.0721 25.5041 81.7761 26.1832 82.6531C26.4649 81.9664 26.6069 81.6208 26.8111 81.123C27.9551 83.5167 28.5116 86.3403 32.0919 86.0569C31.4049 84.208 30.7761 82.5154 30.1473 80.8227C33.6598 86.6278 33.6598 86.6278 35.6279 86.3447C35.5012 85.5403 35.3748 84.7362 35.2481 83.9318L35.1778 83.9928C35.5923 84.558 36.0915 85.0807 36.4022 85.6979C36.9216 86.7311 37.7934 86.9501 38.7679 86.8072C41.2424 86.4445 43.751 86.5518 46.3356 86.3091C45.7499 84.7897 45.2119 83.3941 44.6739 81.9985C45.4717 82.5417 45.8688 83.2391 46.1982 83.9674C46.9101 85.5409 47.7495 86.443 49.8022 85.9186C55.1561 84.5508 60.7845 84.0001 65.9226 82.0963C77.4993 77.8068 87.8784 71.3836 96.7327 62.6496C100.716 58.7199 104.053 54.2948 106.656 49.3722C107.707 47.3822 108.588 45.0908 108.746 42.8792C109.202 36.5272 107.393 30.7209 103.726 25.4558C101.273 21.934 97.9482 19.7077 93.9687 18.4715C88.6536 16.8199 83.2668 16.9671 77.8675 18.2511C72.2116 19.5961 67.1926 22.4558 61.9096 24.7047C52.5905 28.6719 44.2861 34.2488 36.2324 40.268C35.6921 40.672 35.2223 41.1704 34.3835 41.9291C36.4146 42.9169 38.041 43.7082 39.9202 44.6222C40.1033 43.5069 40.2167 42.8162 40.3535 41.984C39.5572 42.0549 38.9296 42.1107 38.1521 42.1799C40.4571 38.4984 48.5454 33.6481 53.084 33.0913C54.6178 36.5636 53.044 40.1627 53.2812 43.8089C55.0904 43.2674 55.0392 41.8863 55.2568 40.7018C55.7583 37.9708 56.2136 35.2314 56.6874 32.4954C56.8554 32.5223 57.0232 32.5492 57.1912 32.5761C56.9373 35.529 56.6833 38.4816 56.3857 41.9427C57.6176 41.114 58.3566 40.6168 58.9984 40.1852C59.0785 37.213 59.4172 34.5236 60.8779 32.0691C60.6422 34.392 60.4064 36.7149 60.1024 39.7109C65.5191 36.1034 71.013 34.4944 76.4979 32.8333C77.2933 32.5923 77.8938 31.7084 78.5848 31.1218C80.473 31.8215 81.0121 31.6884 81.6904 30.1667C82.4016 28.5704 83.0212 26.9336 83.6807 25.3141C83.3498 27.0047 83.0192 28.6954 82.5457 31.1146C83.8397 30.2587 84.5944 29.7598 85.172 29.3777C85.6061 29.5851 85.9868 29.767 86.504 30.0143C87.2543 27.6246 87.927 25.483 88.647 23.1902C86.3593 23.0525 84.4512 23.0762 83.5884 25.4356ZM49.3516 47.851C50.9997 46.686 51.6846 45.0807 51.8801 43.0794C52.1789 40.0218 52.7053 36.9865 53.1354 33.9419C52.9255 33.8306 52.7155 33.7192 52.5055 33.6079C49.7001 35.332 46.8944 37.0562 44.0165 38.8249C43.7747 40.9315 43.5002 42.9921 43.3159 45.0604C43.2135 46.2102 43.81 46.7337 44.9979 46.5937C45.4448 44.0047 45.8778 41.4944 46.311 38.9843C46.5057 39.0127 46.7007 39.0407 46.8953 39.0691C46.6816 41.8047 46.4678 44.5407 46.2538 47.2804C47.1837 47.5954 47.8599 47.8719 48.5625 48.0367C48.8107 48.0952 49.1231 47.8803 49.4062 47.79L49.3516 47.851ZM90.4464 38.829C90.3871 37.6758 90.3278 36.5226 90.2635 35.2756C92.633 36.7936 94.0107 39.9006 93.3801 42.2088C92.6385 44.923 91.2111 47.1242 88.765 48.6855C83.6815 51.9297 78.4167 54.1294 72.1882 54.5991C61.0052 55.4425 50.6072 53.0221 40.4672 48.7312C33.5656 45.8104 27.4753 41.5282 21.5735 37.0354C17.5079 33.9402 13.7333 30.4123 11.1698 25.8376C8.8454 21.6902 9.32814 17.4464 11.4107 13.552C12.9486 10.6755 15.9333 9.18071 18.9166 8.05873C19.1375 8.21377 19.3585 8.3688 19.5795 8.52384C18.5729 11.7214 17.5664 14.9193 16.5598 18.1169C19.8508 16.7378 19.3351 12.826 22.0809 10.6119C21.1894 13.2359 20.4385 15.4469 19.6929 17.6422C21.2707 18.3578 21.7237 17.5526 22.1572 16.4416C22.9075 14.5196 23.7839 12.6467 24.6074 10.7533C24.8313 10.8343 25.0552 10.915 25.279 10.996C24.5611 13.1908 23.8432 15.3853 23.1184 17.6017C24.6453 18.1901 24.9779 17.3515 25.404 16.4526C26.526 14.0854 27.7278 11.7558 28.8977 9.41124C29.082 9.50003 29.2662 9.58854 29.4505 9.67734C28.4347 12.3311 27.4188 14.9849 26.3408 17.8013C28.9177 18.2421 28.6901 16.1523 29.395 15.1218C30.2216 13.913 30.8467 12.5663 31.5591 11.2795C31.7323 11.3662 31.9053 11.453 32.0786 11.5395C31.2522 13.6663 30.4255 15.7931 29.5992 17.9199C29.8566 18.0527 30.1143 18.1854 30.3717 18.3185C32.2029 15.3783 34.0344 12.4382 35.8656 9.49772C36.0716 9.61891 36.2778 9.74011 36.4837 9.86101C35.1263 12.4951 33.7692 15.1293 32.4204 17.7466C32.7033 18.0035 32.8352 18.2213 33.007 18.2595C33.4073 18.3483 33.8267 18.3506 34.2236 18.3864C35.3386 14.8088 37.2233 11.8452 39.6807 10.0771C38.2478 13.0271 36.9824 15.632 35.6374 18.4009C43.112 19.9082 50.5487 21.031 57.5244 24.1511C61.7853 22.0986 66.0903 20.0244 70.6239 17.8406C67.3029 15.1568 63.7287 13.655 60.1377 12.2875C56.5106 10.906 52.7522 9.8694 49.0314 8.6754C53.6121 7.35559 67.6364 12.8917 71.4648 17.5384C71.9469 17.39 72.4615 17.2746 72.9396 17.0721C73.3686 16.8905 73.7576 16.6137 74.2155 16.349C73.9005 15.9293 73.7336 15.6638 73.5239 15.4376C73.2402 15.131 72.946 14.8264 72.618 14.5696C63.342 7.30468 52.9171 3.2923 41.0298 3.41928C38.8324 3.44271 36.6318 3.36345 34.4382 3.45804C30.3784 3.63303 26.2726 3.58501 22.279 4.2173C17.9609 4.90107 13.7368 6.20613 9.89622 8.47611C8.30307 9.4176 7.03936 10.6168 6.56356 12.4344C5.77132 15.4593 5.00107 18.4929 4.33263 21.5467C2.83464 28.3882 5.4951 33.92 10.2656 38.4776C14.1892 42.2264 18.4989 45.5707 22.6304 49.1023C30.632 55.9417 40.2899 59.1674 50.2057 61.7891C51.063 61.0695 51.8929 60.373 52.7227 59.6765C52.8129 59.7783 52.9032 59.8798 52.9934 59.9816C52.4016 60.6298 51.8096 61.278 51.1862 61.9606C53.3295 62.8871 53.3281 62.885 54.4827 61.914C55.5032 61.0561 56.305 59.8575 58.3919 59.2631C56.8863 60.9535 55.8789 62.0847 54.6858 63.4245C57.433 64.401 58.4234 61.9571 60.6046 61.2427C59.8951 62.2721 59.4247 62.9542 58.9264 63.6773C60.3411 64.7345 61.435 64.6173 62.548 63.3634C63.8664 61.8785 65.3004 60.4941 66.7186 59.1012C67.2172 58.6115 67.8171 58.2247 68.3707 57.7912C68.472 57.9254 68.5732 58.0596 68.6744 58.1938C66.9332 60.1774 65.192 62.1608 63.447 64.149C64.7705 65.14 65.4789 64.4247 66.1401 63.7525C67.9739 61.8883 69.7669 59.9836 71.5964 58.1151C72.2637 57.4334 72.9876 56.8075 73.6859 56.1561C73.8157 56.2995 73.9453 56.4427 74.0752 56.5862C73.005 58.0353 71.9348 59.4844 70.8646 60.9332C79.9619 57.0958 88.0659 51.9702 94.7549 45.0289C93.9352 40.7556 95.1468 36.2701 91.6473 32.9284C87.4333 33.1289 83.2916 33.8057 79.0155 35.9499C81.1038 36.7901 81.9976 39.4422 84.5845 37.9228C83.4759 40.3325 85.8893 41.5487 86.1945 43.7305C87.0408 42.968 87.6395 42.4286 88.2385 41.8889C87.6971 43.3244 87.1556 44.7599 86.6142 46.1954C88.1214 45.0121 89.1205 43.5688 90.3703 42.3916C91.7219 41.1183 91.765 40.047 90.4464 38.829ZM31.9831 40.0936C38.0957 34.2216 45.6643 30.677 53.0741 26.2417C52.3001 25.8599 51.9597 25.6352 51.5857 25.5163C41.7621 22.3945 31.6401 20.9995 21.3881 20.5694C18.3956 20.4438 15.4274 21.2193 12.6391 22.4801C14.8434 27.5485 22.605 34.6309 31.9831 40.0936ZM52.0629 49.0482C62.3154 51.7162 72.5254 52.5403 82.7045 49.2105C83.4313 43.6267 80.3416 40.5396 76.5598 37.8074C75.5448 37.0741 74.6291 36.9703 73.3842 37.3212C65.4222 39.5648 58.557 43.7869 52.0629 49.0482ZM32.1893 73.8754C42.0158 74.0319 50.8446 71.6792 59.7996 67.2266C58.6059 66.7817 58.0532 66.4974 57.466 66.3713C55.4355 65.9351 53.368 65.6516 51.3612 65.1307C47.7373 64.1901 44.1513 63.1054 40.5406 62.1128C39.4282 61.8067 38.3227 61.5623 37.4024 62.6855C34.8018 65.8584 32.5361 69.1746 32.1893 73.8754ZM11.7824 19.7138C12.8682 17.3255 13.7255 15.4402 14.5828 13.5546C14.73 13.629 14.8776 13.7033 15.0248 13.7779C14.4029 15.599 13.7813 17.4201 12.9443 19.8711C14.061 19.2955 14.8553 19.1555 15.0086 18.7642C16.1288 15.9059 17.1203 12.9976 18.2397 9.86072C12.727 12.4943 11.1758 14.7515 11.7824 19.7138ZM94.2464 25.3951C94.0147 26.7407 93.8149 27.9017 93.615 29.0627C93.8455 29.1385 94.076 29.2143 94.3069 29.29C95.7618 28.0668 95.544 26.0786 96.3674 24.3044C94.9021 23.933 93.7307 23.6359 92.3276 23.2804C91.7508 25.3271 91.2339 27.1606 90.6503 29.2316C93.5389 29.2678 92.5717 26.4743 94.2464 25.3951ZM87.7642 29.6128C87.9996 29.6915 88.2348 29.7699 88.4702 29.8486C90.6621 28.2731 90.6011 25.6904 91.3763 22.6615C90.2473 23.2026 89.3498 23.3496 89.2283 23.7392C88.6273 25.6615 88.2319 27.6483 87.7642 29.6128ZM31.1426 58.7052C31.4732 60.8464 31.7141 62.4066 32.0421 64.53C33.4232 62.9235 34.3722 61.8195 35.485 60.5254C33.9378 59.8772 32.8103 59.4043 31.1426 58.7052ZM97.8857 38.5967C98.2631 37.0105 98.5414 35.8423 98.8286 34.6361C97.4113 34.0105 96.2367 33.4922 94.6621 32.7971C95.8341 34.9057 96.753 36.5587 97.8857 38.5967ZM42.0791 45.4503C42.3603 43.7062 42.6411 41.9624 42.9683 39.933C40.4701 41.3616 40.2381 42.4358 42.0791 45.4503Z" fill="#F3D2C3"/>
<path d="M41.4133 80.3504C41.8726 81.5198 42.3317 82.6892 42.791 83.8586C42.6143 83.9226 42.4375 83.9868 42.2605 84.0507C41.8397 82.87 41.4185 81.689 40.9977 80.5083C41.1359 80.4557 41.2745 80.4033 41.4133 80.3504Z" fill="#F3D2C3"/>
<path d="M38.1741 81.3393C38.448 81.9135 38.7216 82.4876 38.9953 83.0618C38.8712 83.1193 38.7471 83.1769 38.623 83.2347C38.3587 82.6562 38.0946 82.0775 37.8302 81.499C37.945 81.4458 38.0596 81.3925 38.1741 81.3393Z" fill="#F3D2C3"/>
<path d="M35.2478 83.9321C34.7916 83.2405 34.3355 82.5492 33.8796 81.8576C34.0879 81.7648 34.2961 81.6723 34.5044 81.5794C34.7291 82.3835 34.9542 83.1873 35.1783 83.9923C35.1778 83.9931 35.2478 83.9321 35.2478 83.9321Z" fill="#F3D2C3"/>
<path d="M79.8777 27.9378C79.4314 29.0312 78.985 30.1248 78.5385 31.2181C78.9848 30.1248 79.4311 29.0314 79.8777 27.9378Z" fill="#F3D2C3"/>
<path d="M81.1321 24.8036C80.6866 25.8963 80.2412 26.9894 79.7958 28.0822C80.2412 26.9891 80.6866 25.8963 81.1321 24.8036Z" fill="#F3D2C3"/>
<path d="M49.4056 47.7903C48.7626 44.9285 49.0901 41.7093 50.7289 38.0868C50.5643 39.6985 50.4463 41.3165 50.2227 42.9198C49.9937 44.5624 49.661 46.1908 49.3625 47.838C49.3515 47.8511 49.4056 47.7903 49.4056 47.7903Z" fill="#F3D2C3"/>
</svg>
